<?xml version="1.0" encoding="UTF-8" standalone="no"?>
<svg width="34px" height="34px" viewBox="0 0 34 34" version="1.1" xmlns="http://www.w3.org/2000/svg" xmlns:xlink="http://www.w3.org/1999/xlink" xmlns:sketch="http://www.bohemiancoding.com/sketch/ns">
    <!-- Generator: Sketch 3.2.2 (9983) - http://www.bohemiancoding.com/sketch -->
    <title>delete</title>
    <desc>Created with Sketch.</desc>
    <defs></defs>
    <g id="Page-1" stroke="none" stroke-width="1" fill="none" fill-rule="evenodd" sketch:type="MSPage">
        <path d="M32,17 C32,8.71572875 25.2842712,2 17,2 C8.71572875,2 2,8.71572875 2,17 C2,25.2842712 8.71572875,32 17,32 C25.2842712,32 32,25.2842712 32,17 Z M4,17 C4,9.82029825 9.82029825,4 17,4 C24.1797017,4 30,9.82029825 30,17 C30,24.1797017 24.1797017,30 17,30 C9.82029825,30 4,24.1797017 4,17 Z" id="Oval-23" fill="#F17676" sketch:type="MSShapeGroup"></path>
        <path d="M22.8757046,13.2469424 L23.9643137,12.2149878 L21.9004045,10.0377697 L20.8117954,11.0697243 L11.1242954,20.2530576 L10.0356863,21.2850122 L12.0995955,23.4622303 L13.1882046,22.4302757 L22.8757046,13.2469424 Z" id="Line" fill="#F17676" sketch:type="MSShapeGroup"></path>
        <path d="M20.6529863,22.7747357 L21.677722,23.8701428 L23.8685362,21.8206714 L22.8438005,20.7252643 L13.5748363,10.8170612 L12.5501006,9.72165406 L10.3592864,11.7711254 L11.3840221,12.8665326 L20.6529863,22.7747357 Z" id="Line" fill="#F17676" sketch:type="MSShapeGroup"></path>
    </g>
</svg>