<?xml version="1.0" encoding="UTF-8" standalone="no"?>
<svg width="24px" height="24px" viewBox="0 0 24 24" version="1.1" xmlns="http://www.w3.org/2000/svg" xmlns:xlink="http://www.w3.org/1999/xlink">
    <title>edit</title>
    <desc>Created with Sketch.</desc>
    <defs></defs>
    <g id="Page-1" stroke="none" stroke-width="1" fill="none" fill-rule="evenodd">
        <path d="M21.9825949,4.14830508 L19.1091772,1.27542373 C18.6155063,0.779661017 17.9572785,0.5 17.2484177,0.5 C16.5522152,0.5 15.8813291,0.779661017 15.3876582,1.27542373 L12.9572785,3.71610169 L19.539557,10.3389831 L21.9825949,7.89830508 C22.4762658,7.38983051 22.7420886,6.72881356 22.7420886,6.02966102 C22.7420886,5.31779661 22.4762658,4.65677966 21.9825949,4.14830508 Z M20.5522152,6.44915254 L19.539557,7.46610169 L15.818038,3.71610169 L16.818038,2.71186441 C16.931962,2.59745763 17.0838608,2.53389831 17.2484177,2.53389831 C17.4129747,2.53389831 17.5648734,2.59745763 17.6787975,2.71186441 L20.5522152,5.59745763 C20.6661392,5.71186441 20.7167722,5.86440678 20.7167722,6.02966102 C20.7167722,6.18220339 20.6661392,6.34745763 20.5522152,6.44915254 Z M9.22310127,17.8262712 L5.04588608,19.2372881 L4.08386076,18.2838983 L5.48892405,14.0889831 L13.2357595,6.30932203 L11.8053797,4.87288136 L3.72943038,12.9957627 L0.375,22.9618644 L10.3117089,19.6059322 L18.4003165,11.4830508 L16.9699367,10.0466102 L9.22310127,17.8262712 Z M7.02056962,16.3008475 C7.21044304,16.5042373 7.47626582,16.6059322 7.72943038,16.6059322 C7.99525316,16.6059322 8.24841772,16.5042373 8.45094937,16.3008475 L15.818038,8.90254237 L14.3876582,7.46610169 L7.02056962,14.8644068 C6.81803797,15.0677966 6.71677215,15.3220339 6.71677215,15.5889831 C6.71677215,15.8432203 6.81803797,16.1101695 7.02056962,16.3008475 Z" id="edit" fill="#777D93"></path>
    </g>
</svg>
