<?xml version="1.0" encoding="UTF-8" standalone="no"?>
<svg width="23px" height="18px" viewBox="0 0 23 18" version="1.1" xmlns="http://www.w3.org/2000/svg" xmlns:xlink="http://www.w3.org/1999/xlink">
    <title>email</title>
    <desc>Created with Sketch.</desc>
    <defs></defs>
    <g id="Page-1" stroke="none" stroke-width="1" fill="none" fill-rule="evenodd">
        <path d="M20.3461538,14.596875 L16.3515625,9.4921875 L14.5685096,10.828125 L18.4248798,15.75 L4.14663462,15.75 L8.21033654,10.546875 L6.42728365,9.2109375 L2.21153846,14.6109375 L2.21153846,6.159375 L0,4.246875 L0,18 L22.5576923,18 L22.5576923,4.6828125 L20.3461538,6.58125 L20.3461538,14.596875 Z M0,0 L0,1.8984375 L9.49579327,9.2390625 C10.0763221,9.675 10.8227163,9.8859375 11.5691106,9.8859375 C12.3293269,9.8859375 13.0757212,9.675 13.65625,9.2390625 L22.5576923,2.334375 L22.5576923,0 L0,0 Z M12.343149,7.4671875 C11.9423077,7.7625 11.2097356,7.7625 10.8088942,7.4671875 L3.88401442,2.25 L19.2680288,2.25 L12.343149,7.4671875 Z" id="email" fill="#777D93" ></path>
    </g>
</svg>
