<?xml version="1.0" encoding="UTF-8" standalone="no"?>
<svg width="20px" height="20px" viewBox="0 0 20 20" version="1.1" xmlns="http://www.w3.org/2000/svg" xmlns:xlink="http://www.w3.org/1999/xlink">
    <title>instagram</title>
    <desc>Created with Sketch.</desc>
    <defs></defs>
    <g id="Page-1" stroke="none" stroke-width="1" fill="none" fill-rule="evenodd">
        <path d="M17.0800781,0 L2.91992188,0 C1.30859375,0 0,1.30859375 0,2.91992188 L0,17.0800781 C0,18.6914062 1.30859375,20 2.91992188,20 L17.0800781,20 C18.6914062,20 20,18.6914062 20,17.0800781 L20,2.91992188 C20,1.30859375 18.6914062,0 17.0800781,0 Z M10,6.25 C12.0703125,6.25 13.75,7.9296875 13.75,10 C13.75,12.0703125 12.0703125,13.75 10,13.75 C7.9296875,13.75 6.25,12.0703125 6.25,10 C6.25,7.9296875 7.9296875,6.25 10,6.25 Z M17.9199219,17.5 C17.9199219,17.734375 17.734375,17.9199219 17.5,17.9199219 L2.5,17.9199219 C2.265625,17.9199219 2.08007812,17.734375 2.08007812,17.5 L2.08007812,8.75 L4.296875,8.75 C4.20898438,9.15039062 4.16992188,9.5703125 4.16992188,10 C4.16992188,13.2226562 6.77734375,15.8300781 10,15.8300781 C13.2226562,15.8300781 15.8300781,13.2226562 15.8300781,10 C15.8300781,9.5703125 15.7910156,9.15039062 15.703125,8.75 L17.9199219,8.75 L17.9199219,17.5 Z M17.9199219,5 C17.9199219,5.234375 17.734375,5.41992188 17.5,5.41992188 L15,5.41992188 C14.765625,5.41992188 14.5800781,5.234375 14.5800781,5 L14.5800781,2.5 C14.5800781,2.265625 14.765625,2.08007812 15,2.08007812 L17.5,2.08007812 C17.734375,2.08007812 17.9199219,2.265625 17.9199219,2.5 L17.9199219,5 Z" id="instagram" fill="#5280A5"></path>
    </g>
</svg>