<?xml version="1.0" encoding="UTF-8" standalone="no"?>
<svg width="13px" height="18px" viewBox="0 0 13 18" version="1.1" xmlns="http://www.w3.org/2000/svg" xmlns:xlink="http://www.w3.org/1999/xlink">
    <title>location-blue</title>
    <desc>Created with Sketch.</desc>
    <defs></defs>
    <g id="Page-1" stroke="none" stroke-width="1" fill="none" fill-rule="evenodd" >
        <path d="M6.5,0 C2.91761364,0 0,3.11286982 0,6.90081984 C0,12.0764347 5.484375,17.4583241 5.484375,17.4583241 C6.22301136,18.1521565 6.66619318,18.2084132 7.46022727,17.4583241 C7.46022727,17.4583241 13,12.0764347 13,6.90081984 C13,3.11286982 10.0823864,0 6.5,0 L6.5,0 Z M6.5,9.71365401 C4.80113636,9.71365401 3.43465909,8.32598915 3.43465909,6.60078419 C3.43465909,4.87557923 4.80113636,3.46916215 6.5,3.46916215 C8.19886364,3.46916215 9.58380682,4.87557923 9.58380682,6.60078419 C9.58380682,8.32598915 8.19886364,9.71365401 6.5,9.71365401 L6.5,9.71365401 Z" id="location-3" fill="#659CDC" ></path>
    </g>
</svg>