<?xml version="1.0" encoding="UTF-8" standalone="no"?>
<svg width="12px" height="16px" viewBox="0 0 12 16" version="1.1" xmlns="http://www.w3.org/2000/svg" xmlns:xlink="http://www.w3.org/1999/xlink">
    <title>lock-dark</title>
    <desc>Created with Sketch.</desc>
    <defs></defs>
    <g id="Page-1" stroke="none" stroke-width="1" fill="none" fill-rule="evenodd">
        <path d="M11.0000288,7.00001836 L10.0000262,7.00001836 L10.0000262,4.00001049 C10.0000262,1.79630101 8.20372522,0 6.00001574,0 C3.79630625,0 2.00000525,1.79630101 2.00000525,4.00001049 L2.00000525,7.00001836 L1.00000262,7.00001836 C0.44444561,7.00001836 0,7.44446397 0,8.00002098 L0,15.0000393 C0,15.5555964 0.44444561,16.000042 1.00000262,16.000042 L11.0000288,16.000042 C11.5555859,16.000042 12.0000315,15.5555964 12.0000315,15.0000393 L12.0000315,8.00002098 C12.0000315,7.44446397 11.5555859,7.00001836 11.0000288,7.00001836 Z M4.00001049,4.00001049 C4.00001049,2.88889647 4.88890171,2.00000525 6.00001574,2.00000525 C7.11112976,2.00000525 8.00002098,2.88889647 8.00002098,4.00001049 L8.00002098,7.00001836 L4.00001049,7.00001836 L4.00001049,4.00001049 Z" id="lock" fill="#959698"></path>
    </g>
</svg>