<?xml version="1.0" encoding="UTF-8" standalone="no"?>
<svg width="19px" height="19px" viewBox="0 0 19 19" version="1.1" xmlns="http://www.w3.org/2000/svg" xmlns:xlink="http://www.w3.org/1999/xlink">
    <title>search</title>
    <desc>Created with Sketch.</desc>
    <defs></defs>
    <g id="Page-1" stroke="none" stroke-width="1" fill="none" fill-rule="evenodd" >
        <path d="M18.0240385,16.7822802 L13.3976648,12.1559066 C14.3756868,10.9031593 14.9251374,9.3646978 14.9251374,7.73832418 C14.9251374,5.81524725 14.1778846,4.01304945 12.8152473,2.6614011 C11.4635989,1.30975275 9.6614011,0.5625 7.73832418,0.5625 C5.82623626,0.5625 4.02403846,1.30975275 2.6614011,2.6614011 C1.30975275,4.01304945 0.5625,5.81524725 0.5625,7.73832418 C0.5625,9.6614011 1.30975275,11.4635989 2.6614011,12.8152473 C4.02403846,14.1668956 5.82623626,14.9141484 7.73832418,14.9141484 C9.3646978,14.9141484 10.9031593,14.3756868 12.1559066,13.3976648 L16.7822802,18.0240385 L18.0240385,16.7822802 Z M3.89217033,11.573489 C2.87019231,10.551511 2.30975275,9.18887363 2.30975275,7.73832418 C2.30975275,6.28777473 2.87019231,4.92513736 3.90315934,3.89217033 C4.92513736,2.87019231 6.28777473,2.30975275 7.73832418,2.30975275 C9.18887363,2.30975275 10.551511,2.87019231 11.584478,3.89217033 C12.606456,4.92513736 13.1668956,6.28777473 13.1668956,7.73832418 C13.1668956,9.18887363 12.606456,10.551511 11.584478,11.573489 C10.551511,12.606456 9.18887363,13.1668956 7.73832418,13.1668956 C6.28777473,13.1668956 4.92513736,12.606456 3.89217033,11.573489 Z" id="search" fill="#777D93" ></path>
    </g>
</svg>
