<?xml version="1.0" encoding="UTF-8" standalone="no"?>
<svg width="20px" height="22px" viewBox="0 0 20 22" version="1.1" xmlns="http://www.w3.org/2000/svg" xmlns:xlink="http://www.w3.org/1999/xlink">
    <title>trash</title>
    <desc>Created with Sketch.</desc>
    <defs></defs>
    <g id="Page-1" stroke="none" stroke-width="1" fill="none" fill-rule="evenodd">
        <path d="M15.2272727,19.9245283 L3.77272727,19.9245283 L3.77272727,7.47169811 L1.72727273,7.47169811 L1.72727273,22 L17.2727273,22 L17.2727273,7.47169811 L15.2272727,7.47169811 L15.2272727,19.9245283 Z M6.22727273,7.47169811 L6.22727273,17.8490566 L8.27272727,17.8490566 L8.27272727,7.47169811 L6.22727273,7.47169811 Z M10.7272727,7.47169811 L10.7272727,17.8490566 L12.7727273,17.8490566 L12.7727273,7.47169811 L10.7272727,7.47169811 Z M14.3068182,3.73584906 L13.0667614,0 L5.93323864,0 L4.69318182,3.73584906 L0.5,3.73584906 L0.5,5.81132075 L18.5,5.81132075 L18.5,3.73584906 L14.3068182,3.73584906 Z M6.85369318,3.73584906 L7.40340909,2.0754717 L11.5965909,2.0754717 L12.1463068,3.73584906 L6.85369318,3.73584906 Z" id="trash" fill="#777D93"></path>
    </g>
</svg>
