<?xml version="1.0" encoding="UTF-8" standalone="no"?>
<svg width="24px" height="19px" viewBox="0 0 24 19" version="1.1" xmlns="http://www.w3.org/2000/svg" xmlns:xlink="http://www.w3.org/1999/xlink">
    <title>twitter</title>
    <desc>Created with Sketch.</desc>
    <defs></defs>
    <g id="Page-1" stroke="none" stroke-width="1" fill="none" fill-rule="evenodd">
        <g id="twitter-+-TWEETS" fill="#66B4EF">
            <path d="M20.4918807,2.90214819 C21.4903777,2.30328965 22.2392504,1.34741929 22.5909937,0.218801274 C21.6832691,0.771593771 20.6507325,1.17467163 19.5841562,1.39348533 C18.6877783,0.472164502 17.4510036,-0.126694037 16.0780703,-0.126694037 C13.4456693,-0.126694037 11.3238632,2.0268934 11.3238632,4.69872381 C11.3238632,5.07876865 11.3465563,5.47033 11.4259822,5.81582531 C7.47738062,5.59701161 3.98264127,3.77740298 1.611211,0.852209344 C1.21408153,1.56623299 0.964457288,2.30328965 0.964457288,3.20157746 C0.964457288,4.85995495 1.80410246,6.33406828 3.09760988,7.20932307 C2.31469749,7.18629004 1.58851789,6.96747635 0.941764175,6.61046453 L0.941764175,6.66804708 C0.941764175,9.01741519 2.58701484,10.975222 4.76555366,11.4128493 C4.35707763,11.5280145 3.92590849,11.585597 3.49473935,11.585597 C3.19972888,11.585597 2.90471842,11.5510475 2.60970796,11.4934649 C3.19972888,13.4052056 4.98113823,14.8332529 7.04621148,14.8562859 C5.43500048,16.1691681 3.35858067,17.1480715 1.13465563,17.1480715 C0.748872718,17.1480715 0.374436359,17.1250385 0,17.0674559 C2.09911292,18.4379207 4.62939498,19.0367792 7.31852883,19.0367792 C16.0780703,19.0367792 20.8663171,11.6662126 20.8663171,5.27454932 L20.8663171,4.64114125 C21.7853882,3.96166714 22.5909937,3.12096189 23.2377474,2.13054199 C22.3754091,2.52210335 21.4676846,2.78698309 20.4918807,2.90214819 Z" id="twitter"></path>
        </g>
    </g>
</svg>