<?xml version="1.0" encoding="UTF-8" standalone="no"?><svg width="215" height="180" viewBox="0 0 215 180" xmlns="http://www.w3.org/2000/svg" xmlns:xlink="http://www.w3.org/1999/xlink"><svg width="32" height="32" viewBox="-10 -10 32 32" id="arrow-right-blue" x="183" y="132"><title>arrow-right-blue</title><desc>Created with Sketch.</desc><g fill="none" fill-rule="evenodd"><path d="M5.897 0l-.78.772 4.404 4.403H.314V6.27H9.52l-4.402 4.4.78.773 5.72-5.72L5.9 0z" fill="#60B3D9"/></g></svg><svg width="32" height="32" viewBox="-10 -10 32 32" id="arrow-right-green" x="183" y="68"><title>arrow-right-green</title><desc>Created with Sketch.</desc><g fill="none" fill-rule="evenodd"><path d="M5.897.388l-.78.772 4.404 4.402H.314v1.094H9.52L5.12 11.06l.78.77 5.72-5.72L5.9.387z" fill="#96CD82"/></g></svg><svg width="32" height="32" viewBox="-10 -10 32 32" id="arrow-right-orange" x="183" y="100"><title>arrow-right-orange</title><g fill="none" fill-rule="evenodd"><path d="M5.897 0l-.78.772 4.404 4.403H.314V6.27H9.52l-4.402 4.4.78.773 5.72-5.72L5.9 0z" fill="#F2B762"/></g></svg><svg width="38" height="39" viewBox="-10 -10 38 39" id="close" x="143" y="79"><title>close</title><desc>Created with Sketch.</desc><g fill="none" fill-rule="evenodd"><path d="M17.734 3.03L15.97 1.267 9.25 7.984 2.53 1.266.767 3.03l6.718 6.72-6.718 6.72 1.765 1.764 6.72-6.718 6.72 6.718 1.764-1.765-6.718-6.72 6.718-6.72z" fill="#777D93"/></g></svg><svg width="54" height="54" viewBox="-10 -10 54 54" id="delete"><title>delete</title><desc>Created with Sketch.</desc><g fill="#F17676" fill-rule="evenodd"><path d="M32 17c0-8.284-6.716-15-15-15C8.716 2 2 8.716 2 17c0 8.284 6.716 15 15 15 8.284 0 15-6.716 15-15zM4 17C4 9.82 9.82 4 17 4s13 5.82 13 13-5.82 13-13 13S4 24.18 4 17z"/><path d="M22.876 13.247l1.088-1.032-2.064-2.177-1.088 1.032-9.688 9.183-1.088 1.032 2.064 2.177 1.088-1.032 9.688-9.183zM20.653 22.775l1.025 1.095 2.19-2.05-1.024-1.095-9.27-9.908-1.024-1.095-2.19 2.05 1.024 1.095 9.27 9.908z"/></g></svg><svg width="44" height="44" viewBox="-10 -10 44 44" id="edit" x="99"><title>edit</title><desc>Created with Sketch.</desc><g fill="none" fill-rule="evenodd"><path d="M21.983 4.148L19.11 1.275C18.615.78 17.956.5 17.247.5c-.696 0-1.367.28-1.86.775l-2.43 2.44 6.582 6.624 2.443-2.442c.493-.508.76-1.17.76-1.868 0-.712-.267-1.373-.76-1.882zm-1.43 2.3L19.54 7.467l-3.722-3.75 1-1.004c.114-.115.266-.178.43-.178.165 0 .317.063.43.178l2.874 2.885c.114.115.165.267.165.433 0 .152-.05.317-.165.42zM9.222 17.827l-4.177 1.41-.962-.952L5.49 14.09l7.746-7.78-1.43-1.437-8.077 8.123-3.355 9.966 9.937-3.356 8.088-8.123-1.43-1.436-7.747 7.78zM7.02 16.3c.19.204.456.306.71.306.265 0 .518-.102.72-.305l7.368-7.397-1.43-1.437-7.367 7.398c-.202.204-.303.458-.303.725 0 .253.1.52.304.71z" fill="#777D93"/></g></svg><svg width="43" height="38" viewBox="-10 -10 43 38" id="email" x="99" y="44"><title>email</title><desc>Created with Sketch.</desc><g fill="none" fill-rule="evenodd"><path d="M20.346 14.597l-3.994-5.105-1.783 1.336 3.855 4.922H4.147l4.063-5.203L6.427 9.21l-4.215 5.4V6.16L0 4.246V18h22.558V4.683L20.346 6.58v8.017zM0 0v1.898l9.496 7.34c.58.437 1.327.648 2.073.648.76 0 1.506-.21 2.086-.647l8.902-6.906V0H0zm12.343 7.467c-.4.296-1.133.296-1.534 0L3.883 2.25h15.384l-6.925 5.217z" fill="#777D93"/></g></svg><svg width="32" height="43" viewBox="-10 -10 32 43" id="facebook" y="99"><title>facebook</title><desc>Created with Sketch.</desc><g fill="none" fill-rule="evenodd"><path d="M2.807 22.49h4.21V12.178h3.927l.285-3.744H7.017V5.622c0-1.098.21-1.877 1.634-1.877h2.424L11.23.21S10.01 0 8.42 0C4.474 0 2.807 2.504 2.807 5.15v3.284H0v3.744h2.807V22.49z" fill="#4E69A2"/></g></svg><svg width="39" height="42" viewBox="-10 -10 39 42" id="files" x="72" y="99"><title>files</title><desc>Created with Sketch.</desc><g fill="none" fill-rule="evenodd"><path d="M3.42 3.356V22h9.357L19 15.86V3.355H3.42zM17.1 15.09l-5.118 5.046H5.32V5.22H17.1v9.87zm-5.32-.175h3.8V13.05h-5.7v5.594h1.9v-3.73zM15.58 0H0v18.644h1.9V1.864h13.68V0z" fill="#777D93"/></g></svg><svg width="40" height="40" viewBox="-10 -10 40 40" id="instagram" x="143"><title>instagram</title><desc>Created with Sketch.</desc><g fill="none" fill-rule="evenodd"><path d="M17.08 0H2.92C1.31 0 0 1.31 0 2.92v14.16C0 18.69 1.31 20 2.92 20h14.16c1.61 0 2.92-1.31 2.92-2.92V2.92C20 1.31 18.69 0 17.08 0zM10 6.25c2.07 0 3.75 1.68 3.75 3.75 0 2.07-1.68 3.75-3.75 3.75-2.07 0-3.75-1.68-3.75-3.75 0-2.07 1.68-3.75 3.75-3.75zm7.92 11.25c0 .234-.186.42-.42.42h-15c-.234 0-.42-.186-.42-.42V8.75h2.217c-.088.4-.127.82-.127 1.25 0 3.223 2.607 5.83 5.83 5.83s5.83-2.607 5.83-5.83c0-.43-.04-.85-.127-1.25h2.217v8.75zm0-12.5c0 .234-.186.42-.42.42H15c-.234 0-.42-.186-.42-.42V2.5c0-.234.186-.42.42-.42h2.5c.234 0 .42.186.42.42V5z" fill="#5280A5"/></g></svg><svg width="33" height="38" viewBox="-10 -10 33 38" id="location-blue" y="142"><title>location-blue</title><desc>Created with Sketch.</desc><g fill="none" fill-rule="evenodd"><path d="M6.5 0C2.918 0 0 3.113 0 6.9 0 12.077 5.484 17.46 5.484 17.46c.74.694 1.182.75 1.976 0 0 0 5.54-5.382 5.54-10.557C13 3.114 10.082 0 6.5 0zm0 9.714c-1.7 0-3.065-1.388-3.065-3.113 0-1.724 1.366-3.13 3.065-3.13 1.7 0 3.084 1.406 3.084 3.13 0 1.726-1.385 3.114-3.084 3.114z" fill="#659CDC"/></g></svg><svg width="32" height="36" viewBox="-10 -10 32 36" id="lock" x="183"><title>lock-dark</title><desc>Created with Sketch.</desc><g fill="none" fill-rule="evenodd"><path d="M11 7h-1V4c0-2.204-1.796-4-4-4-2.204 0-4 1.796-4 4v3H1c-.556 0-1 .444-1 1v7c0 .556.444 1 1 1h10c.556 0 1-.444 1-1V8c0-.556-.444-1-1-1zM4 4c0-1.11.89-2 2-2 1.11 0 2 .89 2 2v3H4V4z" fill="#959698"/></g></svg><svg width="37" height="32" viewBox="-10 -10 37 32" id="menu" x="33" y="142"><title>menu</title><g fill="none" fill-rule="evenodd"><path d="M0 0v2h17V0H0zm0 5v2h17V5H0zm0 5v2h17v-2H0z" fill="#fff"/></g></svg><svg width="33" height="22" viewBox="-10 -10 33 22" id="minus" x="143" y="118"><title>minus</title><desc>Created with Sketch.</desc><g fill="none" fill-rule="evenodd"><path d="M12.103 1.424V0H0v1.424h12.103z" fill="#E67E7E"/></g></svg><svg width="31" height="36" viewBox="-10 -10 31 36" id="navigateleft" x="111" y="99"><title>navigateleft</title><desc>Created with Sketch.</desc><g fill="none" fill-rule="evenodd"><path d="M8.005 16.005c.092 0 .166-.037.24-.093l2.334-2.333c.128-.13.128-.353 0-.483L5.467 8.005l5.11-5.093c.13-.13.13-.352 0-.48L8.246.096c-.13-.13-.35-.13-.48 0L.096 7.764c-.13.13-.13.352 0 .48l7.667 7.668c.074.056.148.093.24.093z" fill-opacity=".8" fill="#fff"/></g></svg><svg width="45" height="23" viewBox="-10 -10 45 23" id="panel-minus" x="54"><title>panel-minus</title><desc>Created with Sketch.</desc><g id="pPage-1" fill="none" fill-rule="evenodd"><path d="M25 .047H0v3h25v-3z" opacity=".701" fill="#767B83"/></g><title>plus-2</title><desc>Created with Sketch.</desc><g fill="none" fill-rule="evenodd"><path d="M25 0H0v3h25V0z" opacity=".701" fill="#767B83"/></g></svg><svg width="45" height="45" viewBox="-10 -10 45 45" id="panel-plus" y="54"><title>plus</title><desc>Created with Sketch.</desc><g fill="none" fill-rule="evenodd"><path d="M25 11.047H13.953V0h-2.906v11.047H0v2.906h11.047V25h2.906V13.953H25v-2.906z" opacity=".701" fill="#767B83"/></g></svg><svg width="32" height="32" viewBox="-10 -10 32 32" id="plus" x="183" y="36"><title>plus</title><desc>Created with Sketch.</desc><g fill="none" fill-rule="evenodd"><path d="M12 5.302H6.698V0H5.302v5.302H0v1.396h5.302V12h1.396V6.698H12V5.302z" fill="#767B83"/></g></svg><svg width="39" height="39" viewBox="-10 -10 39 39" id="search" x="143" y="40"><title>search</title><desc>Created with Sketch.</desc><g fill="none" fill-rule="evenodd"><path d="M18.024 16.782l-4.626-4.626c.978-1.253 1.527-2.79 1.527-4.418 0-1.923-.747-3.725-2.11-5.077C11.465 1.31 9.66.563 7.738.563c-1.912 0-3.714.748-5.077 2.1C1.31 4.01.563 5.814.563 7.737c0 1.923.748 3.726 2.1 5.077 1.362 1.352 3.164 2.1 5.076 2.1 1.627 0 3.165-.54 4.418-1.517l4.626 4.626 1.242-1.242zm-14.132-5.21C2.87 10.553 2.31 9.19 2.31 7.74c0-1.45.56-2.813 1.593-3.846C4.925 2.87 6.288 2.31 7.738 2.31c1.45 0 2.814.56 3.846 1.582 1.022 1.033 1.583 2.396 1.583 3.846 0 1.45-.56 2.814-1.583 3.835-1.032 1.033-2.395 1.594-3.846 1.594-1.45 0-2.813-.56-3.846-1.594z" fill="#777D93"/></g></svg><svg width="34" height="32" viewBox="-10 -10 34 32" id="small-check" x="70" y="142"><title>check</title><desc>Created with Sketch.</desc><g fill="none" fill-rule="evenodd"><path d="M13.923 2.548c.113-.113.113-.308 0-.42L11.88.084c-.112-.113-.306-.113-.42 0L5.254 6.307 2.548 3.585c-.113-.113-.308-.113-.42 0L.084 5.627c-.113.113-.113.308 0 .42l4.958 4.96c.065.048.13.08.21.08.082 0 .147-.032.212-.08l8.458-8.46z" fill="#fff"/></g></svg><svg width="40" height="42" viewBox="-10 -10 40 42" id="trash" x="32" y="99"><title>trash</title><desc>Created with Sketch.</desc><g fill="none" fill-rule="evenodd"><path d="M15.227 19.925H3.773V7.472H1.727V22h15.546V7.472h-2.046v12.453zm-9-12.453V17.85h2.046V7.47H6.227zm4.5 0V17.85h2.046V7.47h-2.046zm3.58-3.736L13.067 0H5.933l-1.24 3.736H.5V5.81h18V3.737h-4.193zm-7.453 0l.55-1.66h4.193l.55 1.66H6.853z" fill="#777D93"/></g></svg><svg width="44" height="39" viewBox="-10 -10 44 39" id="twitter" x="45" y="54"><title>twitter</title><desc>Created with Sketch.</desc><g fill="none" fill-rule="evenodd"><g fill="#66B4EF"><path d="M20.492 2.902c.998-.6 1.747-1.555 2.1-2.683-.91.552-1.94.955-3.008 1.173-.896-.92-2.133-1.52-3.506-1.52-2.632 0-4.754 2.154-4.754 4.826 0 .38.023.77.102 1.116-3.95-.22-7.443-2.04-9.815-4.964-.396.714-.646 1.45-.646 2.35 0 1.658.84 3.132 2.134 4.007-.783-.024-1.51-.243-2.156-.6v.058c0 2.35 1.645 4.307 3.824 4.745-.41.115-.84.173-1.27.173-.296 0-.59-.035-.886-.093.59 1.912 2.37 3.34 4.436 3.363-1.61 1.313-3.687 2.292-5.91 2.292-.387 0-.762-.023-1.136-.08 2.1 1.37 4.63 1.97 7.32 1.97 8.758 0 13.546-7.372 13.546-13.763V4.64c.92-.678 1.725-1.52 2.372-2.51-.863.392-1.77.657-2.746.772z"/></g></g></svg></svg>